PathFileType	4	(X/Y/Z)	D:\telocate\uwb07-Unnamed.trc
DataRate	CameraRate	NumFrames	NumMarkers	Units	OrigDataRate	OrigDataStartFrame	OrigNumFrames
100.00	100.00	     106	0	mm	100.00	1	     23149
Frame#	Time	
		

1	0.000				-1300.05530	-97.90386	1903.70862	
2	0.010				-1302.92566	-98.61781	1903.93726	
3	0.020				-1304.22375	-99.35822	1903.59705	
4	0.030				-1305.57605	-100.30653	1903.60620	
5	0.040				-1305.13904	-101.45070	1903.48999	
6	0.050				-1306.70532	-102.56909	1903.90637	
7	0.060				-1308.15417	-103.82406	1904.33179	
8	0.070				-1309.72266	-104.63490	1904.39026	
9	0.080				-1312.08691	-105.18298	1904.59985	
10	0.090				-1313.42444	-106.07413	1904.69824	
11	0.100				-1313.22278	-106.49480	1904.42786	
12	0.110				-1314.26611	-107.09868	1904.40967	
13	0.120				-1315.18555	-107.79039	1904.45789	
14	0.130				-1316.63806	-108.40357	1904.50171	
15	0.140				-1319.38916	-109.00117	1904.66357	
16	0.150				-1320.23413	-109.62447	1904.75208	
17	0.160				-1321.15027	-110.07759	1904.70178	
18	0.170				-1322.39587	-110.61417	1904.71350	
19	0.180				-1323.78931	-111.78719	1905.25439	
20	0.190				-1324.67932	-112.39076	1905.38464	
21	0.200				-1325.84692	-113.00643	1905.75598	
22	0.210				-1327.15259	-113.43685	1905.83044	
23	0.220				-1328.37976	-114.19731	1905.97192	
24	0.230				-1329.37219	-114.92393	1906.21814	
25	0.240				-1330.39771	-115.42667	1906.64355	
26	0.250				-1331.39575	-115.97552	1906.80371	
27	0.260				-1332.39417	-116.99418	1907.24023	
28	0.270				-1333.66479	-117.37695	1907.42664	
29	0.280				-1335.09399	-118.43103	1908.05457	
30	0.290				-1335.87512	-118.96075	1908.45715	
31	0.300				-1336.82971	-119.53858	1909.09241	
32	0.310				-1337.54004	-119.90708	1909.42627	
33	0.320				-1338.32288	-120.01720	1909.61792	
34	0.330				-1339.20508	-120.52265	1910.18066	
35	0.340				-1340.04419	-120.81233	1910.35864	
36	0.350				-1340.83887	-121.15445	1910.69507	
37	0.360				-1341.79736	-122.13815	1911.40051	
38	0.370				-1342.42114	-122.42775	1911.61597	
39	0.380				-1343.09241	-122.54759	1911.77246	
40	0.390				-1343.77014	-122.60726	1911.86743	
41	0.400				-1344.38489	-122.81302	1911.99377	
42	0.410				-1344.82007	-122.94427	1911.96606	
43	0.420				-1345.45886	-122.84345	1911.96533	
44	0.430				-1346.11841	-123.08871	1912.03796	
45	0.440				-1347.04968	-123.08279	1912.35547	
46	0.450				-1347.52979	-123.10818	1912.45825	
47	0.460				-1347.92224	-123.18402	1912.51855	
48	0.470				-1348.30188	-123.22852	1912.79956	
49	0.480				-1348.74658	-123.21141	1913.03613	
50	0.490				-1349.24719	-123.26793	1913.14441	
51	0.500				-1349.70142	-123.20358	1913.28491	
52	0.510				-1350.13501	-123.27071	1913.53699	
53	0.520				-1350.52563	-123.35246	1913.71448	
54	0.530				-1351.23352	-123.43773	1914.47473	
55	0.540				-1351.57605	-123.37830	1914.73682	
56	0.550				-1351.82190	-123.20457	1914.97168	
57	0.560				-1352.08459	-123.25538	1915.22461	
58	0.570				-1352.54138	-123.12270	1915.59070	
59	0.580				-1352.80042	-123.10973	1915.75708	
60	0.590				-1353.02759	-122.83122	1916.01257	
61	0.600				-1353.46594	-122.76810	1916.23486	
62	0.610				-1353.58081	-122.69895	1916.30627	
63	0.620				-1353.62964	-122.69756	1916.42395	
64	0.630				-1353.73608	-122.68418	1916.62463	
65	0.640				-1353.82800	-122.70840	1916.85327	
66	0.650				-1353.66907	-122.11024	1916.70923	
67	0.660				-1353.95544	-122.73666	1917.11487	
68	0.670				-1353.78357	-122.48859	1917.08594	
69	0.680				-1353.75757	-122.51881	1917.19263	
70	0.690				-1353.71399	-122.59646	1917.30652	
71	0.700				-1353.77417	-122.65861	1917.53723	
72	0.710				-1353.68628	-122.79495	1917.66125	
73	0.720				-1353.70288	-123.01129	1917.84961	
74	0.730				-1353.59839	-123.33111	1918.11658	
75	0.740				-1353.41382	-123.39381	1918.19348	
76	0.750				-1353.16492	-123.48824	1918.36743	
77	0.760				-1352.89453	-123.58817	1918.43884	
78	0.770				-1352.66528	-123.79344	1918.42383	
79	0.780				-1352.19299	-123.78605	1918.35791	
80	0.790				-1351.74402	-124.08939	1918.36462	
81	0.800				-1351.24817	-124.26642	1918.08887	
82	0.810				-1350.76111	-124.37119	1918.05334	
83	0.820				-1350.36804	-124.38197	1918.09717	
84	0.830				-1349.80237	-124.51215	1917.85205	
85	0.840				-1349.36804	-124.99480	1918.05920	
86	0.850				-1348.69897	-125.27663	1917.62195	
87	0.860				-1348.06641	-125.47898	1917.44727	
88	0.870				-1347.26245	-125.74393	1917.16235	
89	0.880				-1346.39954	-126.05932	1916.91541	
90	0.890				-1345.08215	-126.04641	1916.00500	
91	0.900				-1344.07019	-126.33405	1915.68274	
92	0.910				-1343.20923	-126.39449	1915.37585	
93	0.920				-1342.28210	-126.76438	1915.04309	
94	0.930				-1341.30505	-127.26613	1914.60547	
95	0.940				-1340.06519	-127.76510	1914.32898	
96	0.950				-1339.20801	-128.25574	1914.12708	
97	0.960				-1337.75964	-128.55022	1913.65015	
98	0.970				-1336.89648	-128.80939	1913.42822	
99	0.980				-1335.26807	-128.88716	1912.45911	
100	0.990				-1333.84351	-129.10692	1912.13184	
101	1.000				-1332.34265	-129.41901	1911.99231	
102	1.010				-1330.88257	-130.16408	1911.50500	
103	1.020				-1329.43164	-130.42580	1910.80103	
104	1.030				-1327.87866	-130.58722	1910.42981	
105	1.040				-1326.07312	-130.54355	1909.51514	
106	1.050				-1324.72815	-130.41534	1909.07544	
